HIERARCHY
ROOT Hips
{
  OFFSET -77.1882 53.3887 -18.0511
  CHANNELS 6 Xposition Yposition Zposition Zrotation Xrotation Yrotation
  JOINT RightUpLeg
  {
    OFFSET -18.37 -1.44 -0.06
    CHANNELS 6 Xposition Yposition Zposition Zrotation Xrotation Yrotation
    JOINT RightLeg
    {
      OFFSET 0.13 -49.98 0.1
      CHANNELS 6 Xposition Yposition Zposition Zrotation Xrotation Yrotation
      JOINT RightFoot
      {
        OFFSET -0.21 -44.18 1.04
        CHANNELS 6 Xposition Yposition Zposition Zrotation Xrotation Yrotation
        End Site
        {
          OFFSET 0 -9 17.5
        }
      }
    }
  }
  JOINT LeftUpLeg
  {
    OFFSET 18.41 -1.42 0.1
    CHANNELS 6 Xposition Yposition Zposition Zrotation Xrotation Yrotation
    JOINT LeftLeg
    {
      OFFSET -0.11 -49.86 -0.02
      CHANNELS 6 Xposition Yposition Zposition Zrotation Xrotation Yrotation
      JOINT LeftFoot
      {
        OFFSET 0.27 -39.78 -1
        CHANNELS 6 Xposition Yposition Zposition Zrotation Xrotation Yrotation
        End Site
        {
          OFFSET 0 -9 17.5
        }
      }
    }
  }
  JOINT Spine
  {
    OFFSET -0.04 13.07 -0.27
    CHANNELS 6 Xposition Yposition Zposition Zrotation Xrotation Yrotation
    JOINT Spine1
    {
      OFFSET -0.04 8.89 -0.09
      CHANNELS 6 Xposition Yposition Zposition Zrotation Xrotation Yrotation
      JOINT Spine2
      {
        OFFSET -0.06 9.24 -0.07
        CHANNELS 6 Xposition Yposition Zposition Zrotation Xrotation Yrotation
        JOINT Spine3
        {
          OFFSET -0.06 8.88 -0.04
          CHANNELS 6 Xposition Yposition Zposition Zrotation Xrotation Yrotation
          JOINT Neck
          {
            OFFSET -0.07 9.49 -0.06
            CHANNELS 6 Xposition Yposition Zposition Zrotation Xrotation Yrotation
            JOINT Head
            {
              OFFSET -0.04 10.01 0.07
              CHANNELS 6 Xposition Yposition Zposition Zrotation Xrotation Yrotation
              End Site
              {
                OFFSET 0 24 0
              }
            }
          }
          JOINT RightShoulder
          {
            OFFSET -5.11 6.17 0.01
            CHANNELS 6 Xposition Yposition Zposition Zrotation Xrotation Yrotation
            JOINT RightArm
            {
              OFFSET -19.75 0 0.41
              CHANNELS 6 Xposition Yposition Zposition Zrotation Xrotation Yrotation
              JOINT RightForeArm
              {
                OFFSET -30.65 -0.1 -0.1
                CHANNELS 6 Xposition Yposition Zposition Zrotation Xrotation Yrotation
                JOINT RightHand
                {
                  OFFSET -28.77 -1.84 -2.16
                  CHANNELS 6 Xposition Yposition Zposition Zrotation Xrotation Yrotation
                  JOINT RightHandThumb1
                  {
                    OFFSET -2.56 0.2 3.21
                    CHANNELS 6 Xposition Yposition Zposition Zrotation Xrotation Yrotation
                    JOINT RightHandThumb2
                    {
                      OFFSET -3.79 0 0
                      CHANNELS 6 Xposition Yposition Zposition Zrotation Xrotation Yrotation
                      JOINT RightHandThumb3
                      {
                        OFFSET -2.63 0 0
                        CHANNELS 6 Xposition Yposition Zposition Zrotation Xrotation Yrotation
                        End Site
                        {
                          OFFSET -2.256 0 0
                        }
                      }
                    }
                  }
                  JOINT RightInHandIndex
                  {
                    OFFSET -3.32 0.52 2.03
                    CHANNELS 6 Xposition Yposition Zposition Zrotation Xrotation Yrotation
                    JOINT RightHandIndex1
                    {
                      OFFSET -5.37 -0.09 1.03
                      CHANNELS 6 Xposition Yposition Zposition Zrotation Xrotation Yrotation
                      JOINT RightHandIndex2
                      {
                        OFFSET -3.72 0 0
                        CHANNELS 6 Xposition Yposition Zposition Zrotation Xrotation Yrotation
                        JOINT RightHandIndex3
                        {
                          OFFSET -2.11 0 0
                          CHANNELS 6 Xposition Yposition Zposition Zrotation Xrotation Yrotation
                          End Site
                          {
                            OFFSET -1.857 0 0
                          }
                        }
                      }
                    }
                  }
                  JOINT RightInHandMiddle
                  {
                    OFFSET -3.48 0.53 0.78
                    CHANNELS 6 Xposition Yposition Zposition Zrotation Xrotation Yrotation
                    JOINT RightHandMiddle1
                    {
                      OFFSET -5.32 -0.09 0.32
                      CHANNELS 6 Xposition Yposition Zposition Zrotation Xrotation Yrotation
                      JOINT RightHandMiddle2
                      {
                        OFFSET -4.06 0 0
                        CHANNELS 6 Xposition Yposition Zposition Zrotation Xrotation Yrotation
                        JOINT RightHandMiddle3
                        {
                          OFFSET -2.55 0 0
                          CHANNELS 6 Xposition Yposition Zposition Zrotation Xrotation Yrotation
                          End Site
                          {
                            OFFSET -2.031 0 0
                          }
                        }
                      }
                    }
                  }
                  JOINT RightInHandRing
                  {
                    OFFSET -3.46 0.55 -0.13
                    CHANNELS 6 Xposition Yposition Zposition Zrotation Xrotation Yrotation
                    JOINT RightHandRing1
                    {
                      OFFSET -4.77 -0.02 -0.49
                      CHANNELS 6 Xposition Yposition Zposition Zrotation Xrotation Yrotation
                      JOINT RightHandRing2
                      {
                        OFFSET -3.54 0 0
                        CHANNELS 6 Xposition Yposition Zposition Zrotation Xrotation Yrotation
                        JOINT RightHandRing3
                        {
                          OFFSET -2.46 0 0
                          CHANNELS 6 Xposition Yposition Zposition Zrotation Xrotation Yrotation
                          End Site
                          {
                            OFFSET -1.91 0 0
                          }
                        }
                      }
                    }
                  }
                  JOINT RightInHandPinky
                  {
                    OFFSET -3.25 0.48 -1.24
                    CHANNELS 6 Xposition Yposition Zposition Zrotation Xrotation Yrotation
                    JOINT RightHandPinky1
                    {
                      OFFSET -4.26 -0.02 -1.12
                      CHANNELS 6 Xposition Yposition Zposition Zrotation Xrotation Yrotation
                      JOINT RightHandPinky2
                      {
                        OFFSET -2.84 0 0
                        CHANNELS 6 Xposition Yposition Zposition Zrotation Xrotation Yrotation
                        JOINT RightHandPinky3
                        {
                          OFFSET -1.79 0 0
                          CHANNELS 6 Xposition Yposition Zposition Zrotation Xrotation Yrotation
                          End Site
                          {
                            OFFSET -1.692 0 0
                          }
                        }
                      }
                    }
                  }
                }
              }
            }
          }
          JOINT LeftShoulder
          {
            OFFSET 5.05 6.39 0.19
            CHANNELS 6 Xposition Yposition Zposition Zrotation Xrotation Yrotation
            JOINT LeftArm
            {
              OFFSET 20.21 0.22 0.44
              CHANNELS 6 Xposition Yposition Zposition Zrotation Xrotation Yrotation
              JOINT LeftForeArm
              {
                OFFSET 30.33 0.46 0.13
                CHANNELS 6 Xposition Yposition Zposition Zrotation Xrotation Yrotation
                JOINT LeftHand
                {
                  OFFSET 28 0.07 -0.65
                  CHANNELS 6 Xposition Yposition Zposition Zrotation Xrotation Yrotation
                  JOINT LeftHandThumb1
                  {
                    OFFSET 2.56 0.2 3.21
                    CHANNELS 6 Xposition Yposition Zposition Zrotation Xrotation Yrotation
                    JOINT LeftHandThumb2
                    {
                      OFFSET 3.79 0 0
                      CHANNELS 6 Xposition Yposition Zposition Zrotation Xrotation Yrotation
                      JOINT LeftHandThumb3
                      {
                        OFFSET 2.63 0 0
                        CHANNELS 6 Xposition Yposition Zposition Zrotation Xrotation Yrotation
                        End Site
                        {
                          OFFSET 2.256 0 0
                        }
                      }
                    }
                  }
                  JOINT LeftInHandIndex
                  {
                    OFFSET 3.32 0.52 2.03
                    CHANNELS 6 Xposition Yposition Zposition Zrotation Xrotation Yrotation
                    JOINT LeftHandIndex1
                    {
                      OFFSET 5.37 -0.09 1.03
                      CHANNELS 6 Xposition Yposition Zposition Zrotation Xrotation Yrotation
                      JOINT LeftHandIndex2
                      {
                        OFFSET 3.72 0 0
                        CHANNELS 6 Xposition Yposition Zposition Zrotation Xrotation Yrotation
                        JOINT LeftHandIndex3
                        {
                          OFFSET 2.11 0 0
                          CHANNELS 6 Xposition Yposition Zposition Zrotation Xrotation Yrotation
                          End Site
                          {
                            OFFSET 1.857 0 0
                          }
                        }
                      }
                    }
                  }
                  JOINT LeftInHandMiddle
                  {
                    OFFSET 3.48 0.53 0.78
                    CHANNELS 6 Xposition Yposition Zposition Zrotation Xrotation Yrotation
                    JOINT LeftHandMiddle1
                    {
                      OFFSET 5.32 -0.09 0.32
                      CHANNELS 6 Xposition Yposition Zposition Zrotation Xrotation Yrotation
                      JOINT LeftHandMiddle2
                      {
                        OFFSET 4.06 0 0
                        CHANNELS 6 Xposition Yposition Zposition Zrotation Xrotation Yrotation
                        JOINT LeftHandMiddle3
                        {
                          OFFSET 2.55 0 0
                          CHANNELS 6 Xposition Yposition Zposition Zrotation Xrotation Yrotation
                          End Site
                          {
                            OFFSET 2.031 0 0
                          }
                        }
                      }
                    }
                  }
                  JOINT LeftInHandRing
                  {
                    OFFSET 3.46 0.55 -0.13
                    CHANNELS 6 Xposition Yposition Zposition Zrotation Xrotation Yrotation
                    JOINT LeftHandRing1
                    {
                      OFFSET 4.77 -0.02 -0.49
                      CHANNELS 6 Xposition Yposition Zposition Zrotation Xrotation Yrotation
                      JOINT LeftHandRing2
                      {
                        OFFSET 3.54 0 0
                        CHANNELS 6 Xposition Yposition Zposition Zrotation Xrotation Yrotation
                        JOINT LeftHandRing3
                        {
                          OFFSET 2.46 0 0
                          CHANNELS 6 Xposition Yposition Zposition Zrotation Xrotation Yrotation
                          End Site
                          {
                            OFFSET 1.91 0 0
                          }
                        }
                      }
                    }
                  }
                  JOINT LeftInHandPinky
                  {
                    OFFSET 3.25 0.48 -1.24
                    CHANNELS 6 Xposition Yposition Zposition Zrotation Xrotation Yrotation
                    JOINT LeftHandPinky1
                    {
                      OFFSET 4.26 -0.02 -1.12
                      CHANNELS 6 Xposition Yposition Zposition Zrotation Xrotation Yrotation
                      JOINT LeftHandPinky2
                      {
                        OFFSET 2.84 0 0
                        CHANNELS 6 Xposition Yposition Zposition Zrotation Xrotation Yrotation
                        JOINT LeftHandPinky3
                        {
                          OFFSET 1.79 0 0
                          CHANNELS 6 Xposition Yposition Zposition Zrotation Xrotation Yrotation
                          End Site
                          {
                            OFFSET 1.692 0 0
                          }
                        }
                      }
                    }
                  }
                }
              }
            }
          }
        }
      }
    }
  }
}
MOTION
Frames:	4
Frame Time:	0.0166667
-74.4573 55.0787 -20.1963 -23.5844 -0.39434 85.2594 -18.52 -1.43 -0.02 -121.596 -60.4712 -110.383 -0.03 -50.0301 0.02 102.206 67.1686 -85.7159 -0.79 -45.1012 1.36 -2.4996 -21.9899 7.54046 18.54 -1.46988 0 159.778 -73.2032 156.697 0.06 -49.9788 0.000115741 25.7074 88.1062 -22.0383 -0.408681 -38.95 -1.6112 0.871595 -18.4369 -3.70657 0.01 13.07 0.02 0.618412 6.459 -5.63621 0.0094213 8.87 0.02 0.189452 0.539998 -1.40058 0.0194213 9.24 0.01 0.318843 0.9 -2.33058 0.0194213 8.88 0.01 0.360093 -1.2 -2.06 -0.13287 9.4912 0.0498843 1.32093 -1.23583 -7.19904 -0.111667 9.98 0.162245 0.32604 -22.9979 -37.5396 -5.09 6.3 0.0105787 -2.35729 -3.69822 23.0053 -20.37 -0.03 -0.000115741 62.3249 -9.99192 52.1309 -29.99 -0.030625 0.03 -22.3401 -44.8333 74.7599 -28 -0.01 -0.01 -6.72178 1.33213 0.710463 -2.56 0.2 3.21 28.18 10.73 19.16 -3.79 0 -7.10543e-015 2.61065e-014 9.54166e-015 -10 -2.63 0 -7.10543e-015 -1.54083e-014 -9.54166e-015 -10 -3.32 0.52 2.03 3.53113e-031 -3.18055e-015 6.36111e-015 -5.37 -0.09 1.03 19.98 0.87 2.4 -3.72 0 -1.42109e-014 24 -1.27222e-014 8.74653e-015 -2.11 0 -7.10543e-015 20 0 1.59028e-015 -3.48 0.53 0.78 3.53113e-031 -3.18055e-015 6.36111e-015 -5.32 -0.09 0.32 20 -1.90833e-014 -8.74653e-015 -4.06 0 7.10543e-015 24 1.27222e-014 -6.36111e-015 -2.55 0 0 20 -3.18055e-014 1.90833e-014 -3.46 0.55 -0.13 3.53113e-031 -3.18055e-015 6.36111e-015 -4.77 -0.02 -0.49 19.97 -1.03 -2.82 -3.54 0 7.10543e-015 24 -9.54166e-015 -3.97569e-015 -2.46 0 0 20 6.36111e-015 3.18055e-015 -3.25 0.48 -1.24 3.53113e-031 -3.18055e-015 6.36111e-015 -4.26 -0.02 -1.12 19.78 -3.01 -8.31 -2.84 0 0 24 3.18055e-014 -8.74653e-015 -1.79 0 0 20 -9.54166e-015 1.43125e-014 5.11 6.31938 -0.01 1.73515 -5.04005 -12.7553 20.4 -0.0287963 -0.02 -40.7217 -2.42833 -55.4472 30.0207 -0.04 0 27.8759 -53.1295 -61.289 27.9 -0.06 -0.09 17.1301 13.2128 -0.301204 2.56 0.2 3.21 -28.18 10.73 -19.16 3.79 0 3.55271e-015 -8.00641e-015 -9.54166e-015 10 2.63 0 -1.06581e-014 -1.08105e-014 6.36111e-015 10 3.32 0.52 2.03 6.36111e-015 3.18055e-015 3.18055e-015 5.37 -0.09 1.03 -19.98 0.87 -2.4 3.72 0 7.10543e-015 -24 -1.90833e-014 1.27222e-014 2.11 0 -7.10543e-015 -20 6.36111e-015 -3.18055e-015 3.48 0.53 0.78 6.36111e-015 3.18055e-015 3.18055e-015 5.32 -0.09 0.32 -20 0 1.2424e-014 4.06 0 1.42109e-014 -24 6.36111e-015 9.54166e-015 2.55 1.42109e-014 1.42109e-014 -20 -6.36111e-015 -3.18055e-015 3.46 0.55 -0.13 6.36111e-015 3.18055e-015 3.18055e-015 4.77 -0.02 -0.49 -19.97 -1.03 2.82 3.54 0 -1.42109e-014 -24 -3.49861e-014 3.18055e-015 2.46 0 1.42109e-014 -20 -1.27222e-014 1.27222e-014 3.25 0.48 -1.24 6.36111e-015 3.18055e-015 3.18055e-015 4.26 -0.02 -1.12 -19.78 -3.01 8.31 2.84 1.42109e-014 0 -24 0 8.74653e-015 1.79 0 -1.42109e-014 -20 1.90833e-014 7.95139e-015 
-74.4679 55.0791 -20.1971 -23.5747 -0.402245 85.2766 -18.5105 -1.43 -0.02 -121.587 -60.4647 -110.374 -0.03 -50.03 0.02 102.219 67.1698 -85.718 -0.799485 -45.1 1.36 -2.50511 -21.99 7.52997 18.54 -1.47 -1.42109e-014 159.791 -73.2064 156.701 0.06 -49.98 7.10543e-015 25.6101 88.1 -21.9505 -0.40965 -38.95 -1.60016 0.87586 -18.4292 -3.69009 0.01 13.07 0.02 0.6573 6.46946 -5.59497 0.0200318 8.87 0.02 0.200032 0.539999 -1.38997 0.0303819 9.24 0.01 0.339714 0.909485 -2.31048 0.0300318 8.88 0.01 0.36035 -1.2 -2.05052 -0.101348 9.49 0.040515 1.29101 -1.23557 -7.03918 -0.0908333 9.98948 0.131152 0.235863 -23.0409 -37.5526 -5.09 6.29965 0.00945312 -2.39045 -3.71038 22.9228 -20.37 -0.0303501 0.00948495 62.2837 -10.0095 52.1132 -29.99 -0.0400318 0.0296499 -22.3309 -44.8008 74.7786 -28 -0.01 -0.01 -6.70997 1.3008 0.709453 -2.56 0.2 3.21 28.18 10.73 19.16 -3.79 0 0 7.55797e-015 -6.36111e-015 -10 -2.63 0 7.10543e-015 -2.08812e-014 -2.22639e-014 -10 -3.32 0.52 2.03 1.76556e-031 -3.18055e-015 3.18055e-015 -5.37 -0.09 1.03 19.98 0.87 2.4 -3.72 0 7.10543e-015 24 9.54166e-015 1.51076e-014 -2.11 0 1.42109e-014 20 -6.36111e-015 9.54166e-015 -3.48 0.53 0.78 1.76556e-031 -3.18055e-015 3.18055e-015 -5.32 -0.09 0.32 20 -6.36111e-015 -1.11319e-014 -4.06 0 1.42109e-014 24 0 -4.77083e-015 -2.55 0 -7.10543e-015 20 -3.81667e-014 2.06736e-014 -3.46 0.55 -0.13 1.76556e-031 -3.18055e-015 3.18055e-015 -4.77 -0.02 -0.49 19.97 -1.03 -2.82 -3.54 0 0 24 6.36111e-015 -7.95139e-016 -2.46 0 0 20 -9.54166e-015 3.18055e-015 -3.25 0.48 -1.24 1.76556e-031 -3.18055e-015 3.18055e-015 -4.26 -0.02 -1.12 19.78 -3.01 -8.31 -2.84 1.42109e-014 -1.42109e-014 24 3.81667e-014 -8.34896e-015 -1.79 0 1.42109e-014 20 -9.54166e-015 1.74931e-014 5.11 6.30997 -0.01 1.66297 -5.03731 -12.8384 20.4 -0.03 -0.0196499 -40.7008 -2.44952 -55.478 30.01 -0.04 -0.00948495 27.9225 -53.1106 -61.1936 27.9 -0.06 -0.080515 17.1395 13.1708 -0.3 2.56 0.2 3.21 -28.18 10.73 -19.16 3.79 0 0 3.36491e-015 -1.90833e-014 10 2.63 -1.42109e-014 0 -5.09102e-015 -3.18055e-015 10 3.32 0.52 2.03 -9.54166e-015 3.18055e-015 -0 5.37 -0.09 1.03 -19.98 0.87 -2.4 3.72 0 -1.42109e-014 -24 -1.90833e-014 1.11319e-014 2.11 0 -7.10543e-015 -20 -6.36111e-015 -3.18055e-015 3.48 0.53 0.78 -9.54166e-015 3.18055e-015 -0 5.32 -0.09 0.32 -20 3.18055e-015 -3.67752e-015 4.06 0 7.10543e-015 -24 -9.54166e-015 1.11319e-014 2.55 0 7.10543e-015 -20 -3.18055e-015 -0 3.46 0.55 -0.13 -9.54166e-015 3.18055e-015 -0 4.77 -0.02 -0.49 -19.97 -1.03 2.82 3.54 -1.42109e-014 0 -24 -3.18055e-014 3.18055e-015 2.46 0 0 -20 -3.18055e-015 1.59028e-014 3.25 0.48 -1.24 -9.54166e-015 3.18055e-015 -0 4.26 -0.02 -1.12 -19.78 -3.01 8.31 2.84 0 0 -24 1.27222e-014 3.97569e-015 1.79 1.42109e-014 0 -20 2.22639e-014 4.77083e-015 
-74.4768 55.0687 -20.2084 -23.5747 -0.402202 85.2771 -18.52 -1.43 -0.02 -121.593 -60.4734 -110.38 -0.03 -50.03 0.02 102.22 67.1703 -85.7193 -0.8 -45.1 1.36 -2.50552 -22 7.53 18.55 -1.47 1.42109e-014 159.789 -73.208 156.709 0.06 -49.98 0 25.6002 88.1009 -21.9501 -0.42 -38.95 -1.6 0.877907 -18.44 -3.68 0.01 13.07 0.02 0.675694 6.4693 -5.56402 0.01 8.87 0.02 0.210001 0.540027 -1.38 0.02 9.24 0.01 0.35 0.910004 -2.3 0.02 8.88 0.01 0.35 -1.21 -2.04 -0.08 9.49 0.04 1.23935 -1.23547 -6.79001 -0.07 9.99 0.1 0.17 -23.07 -37.56 -5.09 6.31 0.01 -2.39 -3.7 22.85 -20.37 -0.02 0.01 62.2176 -10.0034 52.0906 -29.99 -0.04 0.04 -22.32 -44.78 74.79 -28 -0.01 -0.01 -6.72 1.27 0.71 -2.56 0.2 3.21 28.18 10.73 19.16 -3.79 1.42109e-014 0 1.97814e-014 0 -10 -2.63 -1.42109e-014 7.10543e-015 -1.97596e-014 -1.59028e-014 -10 -3.32 0.52 2.03 0 0 -3.18055e-015 -5.37 -0.09 1.03 19.98 0.87 2.4 -3.72 0 -7.10543e-015 24 6.36111e-015 -1.59028e-015 -2.11 0 -7.10543e-015 20 -1.27222e-014 -3.18055e-015 -3.48 0.53 0.78 0 0 -3.18055e-015 -5.32 -0.09 0.32 20 -3.18055e-015 -6.36111e-015 -4.06 0 0 24 6.36111e-015 -3.18055e-015 -2.55 1.42109e-014 -1.42109e-014 20 -3.81667e-014 1.27222e-014 -3.46 0.55 -0.13 0 0 -3.18055e-015 -4.77 -0.02 -0.49 19.97 -1.03 -2.82 -3.54 0 7.10543e-015 24 3.18055e-015 -1.59028e-015 -2.46 0 0 20 -1.27222e-014 -0 -3.25 0.48 -1.24 0 0 -3.18055e-015 -4.26 -0.02 -1.12 19.78 -3.01 -8.31 -2.84 0 0 24 4.13472e-014 -5.56597e-015 -1.79 0 -1.42109e-014 20 -3.18055e-015 1.43125e-014 5.11 6.32 -0.01 1.57889 -5.03484 -12.8901 20.4 -0.03 -0.03 -40.66 -2.45 -55.52 30.01 -0.04 -0.01 27.9563 -53.0979 -61.1198 27.9 -0.06 -0.08 17.16 13.15 -0.31 2.56 0.2 3.21 -28.18 10.73 -19.16 3.79 0 3.55271e-015 -5.89842e-015 -3.18055e-015 10 2.63 0 -3.55271e-015 -1.05639e-014 9.54166e-015 10 3.32 0.52 2.03 -3.53113e-031 3.18055e-015 6.36111e-015 5.37 -0.09 1.03 -19.98 0.87 -2.4 3.72 0 0 -24 -6.36111e-015 7.95139e-015 2.11 0 0 -20 6.36111e-015 -1.59028e-014 3.48 0.53 0.78 -3.53113e-031 3.18055e-015 6.36111e-015 5.32 -0.09 0.32 -20 6.36111e-015 9.0447e-015 4.06 0 -1.42109e-014 -24 0 -0 2.55 0 1.42109e-014 -20 3.18055e-015 6.36111e-015 3.46 0.55 -0.13 -3.53113e-031 3.18055e-015 6.36111e-015 4.77 -0.02 -0.49 -19.97 -1.03 2.82 3.54 -1.42109e-014 1.42109e-014 -24 -2.54444e-014 -1.59028e-015 2.46 -1.42109e-014 -2.13163e-014 -20 -9.54166e-015 9.54166e-015 3.25 0.48 -1.24 -3.53113e-031 3.18055e-015 6.36111e-015 4.26 -0.02 -1.12 -19.78 -3.01 8.31 2.84 1.42109e-014 7.10543e-015 -24 1.59028e-014 1.11319e-014 1.79 0 2.84217e-014 -20 2.22639e-014 -1.59028e-015 
-74.4756 55.0687 -20.2187 -23.5747 -0.402165 85.2771 -18.51 -1.43051 -0.0101649 -121.584 -60.4732 -110.381 -0.03 -50.03 0.02 102.209 67.1699 -85.7195 -0.800032 -45.09 1.37 -2.50667 -21.9995 7.53081 18.5504 -1.46945 -1.42109e-014 159.813 -73.205 156.723 0.06 -49.9898 0 25.7206 88.1103 -22.0605 -0.420515 -38.9603 -1.60003 0.874866 -18.4401 -3.69012 0.01 13.07 0.02 0.692939 6.4795 -5.5236 0.01 8.87 0.02 0.209936 0.540055 -1.36965 0.02 9.24 0.01 0.359992 0.909815 -2.29 0.02 8.88 0.01 0.349917 -1.21 -2.02917 -0.0591667 9.49 0.03 1.18691 -1.23549 -6.48513 -0.0595168 9.99 0.0693316 0.108015 -23.1117 -37.5492 -5.09 6.31 0.01 -2.39001 -3.69955 22.738 -20.37 -0.01 0.0198032 62.1759 -9.9945 52.0878 -29.99 -0.04 0.0503501 -22.2794 -44.8001 74.8311 -28 -0.0203501 -0.01 -6.67982 1.27987 0.729835 -2.56 0.2 3.21 28.18 10.73 19.16 -3.79 0 -7.10543e-015 1.87722e-014 0 -10 -2.63 0 -7.10543e-015 -2.38643e-014 -2.54444e-014 -10 -3.32 0.52 2.03 5.29669e-031 -9.54166e-015 3.18055e-015 -5.37 -0.09 1.03 19.98 0.87 2.4 -3.72 0 0 24 0 6.36111e-015 -2.11 0 -7.10543e-015 20 3.18055e-015 9.54166e-015 -3.48 0.53 0.78 5.29669e-031 -9.54166e-015 3.18055e-015 -5.32 -0.09 0.32 20 -1.90833e-014 -1.59028e-015 -4.06 0 2.84217e-014 24 3.18055e-015 -3.97569e-015 -2.55 -1.42109e-014 -1.42109e-014 20 -2.8625e-014 6.36111e-015 -3.46 0.55 -0.13 5.29669e-031 -9.54166e-015 3.18055e-015 -4.77 -0.02 -0.49 19.97 -1.03 -2.82 -3.54 0 -7.10543e-015 24 9.54166e-015 -1.59028e-015 -2.46 0 0 20 -3.18055e-015 1.59028e-015 -3.25 0.48 -1.24 5.29669e-031 -9.54166e-015 3.18055e-015 -4.26 -0.02 -1.12 19.78 -3.01 -8.31 -2.84 0 -1.42109e-014 24 4.45278e-014 -1.35174e-014 -1.79 1.42109e-014 0 20 -6.36111e-015 2.06736e-014 5.11 6.32 -0.01 1.5293 -5.02963 -12.9827 20.4 -0.0196499 -0.020515 -40.6392 -2.47083 -55.5205 30.01 -0.04 -0.01 27.9468 -53.0943 -61.0995 27.9 -0.06 -0.08 17.1912 13.1188 -0.341183 2.56 0.2 3.21 -28.18 10.73 -19.16 3.79 1.42109e-014 -3.55271e-015 3.85808e-015 -1.27222e-014 10 2.63 0 -3.55271e-015 -9.62122e-015 -9.54166e-015 10 3.32 0.52 2.03 6.36111e-015 -6.36111e-015 4.77083e-015 5.37 -0.09 1.03 -19.98 0.87 -2.4 3.72 0 1.42109e-014 -24 -1.90833e-014 -1.59028e-015 2.11 0 0 -20 -9.54166e-015 -9.54166e-015 3.48 0.53 0.78 6.36111e-015 -6.36111e-015 4.77083e-015 5.32 -0.09 0.32 -20 0 1.20265e-014 4.06 1.42109e-014 1.42109e-014 -24 -3.18055e-015 -3.18055e-015 2.55 0 2.13163e-014 -20 3.18055e-015 -9.54166e-015 3.46 0.55 -0.13 6.36111e-015 -6.36111e-015 4.77083e-015 4.77 -0.02 -0.49 -19.97 -1.03 2.82 3.54 0 -7.10543e-015 -24 -3.18055e-014 -7.95139e-015 2.46 -1.42109e-014 -7.10543e-015 -20 3.18055e-015 3.18055e-015 3.25 0.48 -1.24 6.36111e-015 -6.36111e-015 4.77083e-015 4.26 -0.02 -1.12 -19.78 -3.01 8.31 2.84 0 -1.42109e-014 -24 9.54166e-015 -3.18055e-015 1.79 0 -7.10543e-015 -20 2.22639e-014 -1.59028e-015 
